####
#
# OBJ File Generated by Meshlab
#
####
# Object right_hand_thumb_0_link.OBJ
#
# Vertices: 94
# Faces: 176
#
####
vn -3.1356157048956441 -0.1368992848511291 3.0543291534512012
v -0.0115000000223517 0.0005000000237487 0.0094999996945262
vn -3.1382294607817429 0.1027349538984277 3.0761428329614970
v -0.0115000000223517 0.0193000007420778 0.0094999996945262
vn -3.1356157048956375 -0.1368992848511285 -3.0543291534512016
v -0.0115000000223517 0.0005000000237487 -0.0094999996945262
vn -3.1382294607817443 0.1027349538984277 -3.0761428329613008
v -0.0115000000223517 0.0193000007420778 -0.0094999996945262
vn -3.1080469487255664 0.4091826233438826 3.0106926034812105
v -0.0114230038598180 0.0204747356474400 0.0094999996945262
vn -3.1080469487255651 0.4091826233438824 -3.0106926034812105
v -0.0114230038598180 0.0204747356474400 -0.0094999996945262
vn -3.0280481821789111 0.8113636058449061 3.0106932862066116
v -0.0111933322623372 0.0216293707489967 0.0094999996945262
vn -3.0280481821789111 0.8113636058449062 -3.0106932862066116
v -0.0111933322623372 0.0216293707489967 -0.0094999996945262
vn -2.8962392195454827 1.1996604858253028 3.0106936022934030
v -0.0108149154111743 0.0227441508322954 0.0094999996945262
vn -2.8962392195454836 1.1996604858253033 -3.0106936022934034
v -0.0108149154111743 0.0227441508322954 -0.0094999996945262
vn -2.7148739587219390 1.5674326890346875 3.0106919695540593
v -0.0102942287921906 0.0238000005483627 0.0094999996945262
vn -2.7148739587219390 1.5674326890346875 -3.0106919695540606
v -0.0102942287921906 0.0238000005483627 -0.0094999996945262
vn -2.4870563989029240 1.9083860278613278 3.0106933920467496
v -0.0096401805058122 0.0247788522392511 0.0094999996945262
vn -2.4870563989029240 1.9083860278613280 -3.0106933920467509
v -0.0096401805058122 0.0247788522392511 -0.0094999996945262
vn -2.2166858829625471 2.2166845645293787 3.0106933915622576
v -0.0088639613240957 0.0256639607250690 0.0094999996945262
vn -2.2166858829625471 2.2166845645293782 -3.0106933915622562
v -0.0088639613240957 0.0256639607250690 -0.0094999996945262
vn -1.9083852971580237 2.4870567404780268 3.0106916999875115
v -0.0079788528382778 0.0264401808381081 0.0094999996945262
vn -1.9083852971580235 2.4870567404780264 -3.0106916999875160
v -0.0079788528382778 0.0264401808381081 -0.0094999996945262
vn -1.5674325019366604 2.7148743018332064 3.0106939512948250
v -0.0070000002160668 0.0270942281931639 0.0094999996945262
vn -1.5674325019366595 2.7148743018332047 -3.0106939512948250
v -0.0070000002160668 0.0270942281931639 -0.0094999996945262
vn -1.1996619209737382 2.8962385408748634 3.0106928449796633
v -0.0059441509656608 0.0276149157434702 0.0094999996945262
vn -1.1996619209737389 2.8962385408748648 -3.0106928449796633
v -0.0059441509656608 0.0276149157434702 -0.0094999996945262
vn -0.8113636760786574 3.0280481416293759 3.0106930818942184
v -0.0048293713480234 0.0279933325946331 0.0094999996945262
vn -0.8113636760786572 3.0280481416293750 -3.0106930818942184
v -0.0048293713480234 0.0279933325946331 -0.0094999996945262
vn -0.4091824233590787 3.1080469776889386 3.0106926289087945
v -0.0036747357808053 0.0282230041921139 0.0094999996945262
vn -0.4091824233590792 3.1080469776889412 -3.0106926289087945
v -0.0036747357808053 0.0282230041921139 -0.0094999996945262
vn -0.1027348727992526 3.1382294660972607 3.0761428847016119
v -0.0024999999441206 0.0283000003546476 0.0094999996945262
vn -0.1027348727992525 3.1382294660972589 -3.0761428847016123
v -0.0024999999441206 0.0283000003546476 -0.0094999996945262
vn 0.1232469247818145 3.1367501242628357 -3.0630504965625165
v 0.0073928930796683 0.0283000003546476 -0.0094999996945262
vn 0.1232469247818121 3.1367501242628055 3.0630504965625183
v 0.0073928930796683 0.0283000003546476 0.0094999996945262
vn 2.1308670540343249 2.3051672784450363 3.0630490426490686
v 0.0077464464120567 0.0281535536050797 0.0094999996945262
vn 2.3051675127877722 2.1308668196915796 3.0630492536316618
v 0.0099535537883639 0.0259464457631111 0.0094999996945262
vn 2.1308670540343204 2.3051672784450310 -3.0630490426490677
v 0.0077464464120567 0.0281535536050797 -0.0094999996945262
vn 2.3051675127877775 2.1308668196915841 -3.0630492536316596
v 0.0099535537883639 0.0259464457631111 -0.0094999996945262
vn 3.1367514104678231 0.1232305813963895 3.0630609332553105
v 0.0100999996066093 0.0255928933620453 0.0094999996945262
vn 3.1356157048956375 -0.1368992848511285 3.0543291534512012
v 0.0100999996066093 0.0005000000237487 0.0094999996945262
vn 3.1367514104678120 0.1232305813963886 -3.0630609332553109
v 0.0100999996066093 0.0255928933620453 -0.0094999996945262
vn 3.1356157048956441 -0.1368992848511291 -3.0543291534512012
v 0.0100999996066093 0.0005000000237487 -0.0094999996945262
vn -0.0000000000000002 -1.5707963267948966 0.0000000000000000
v -0.0109999999403954 0.0000000000000000 -0.0094999996945262
vn -0.0000000000000002 -1.5707963267948966 -3.0543255816116237
v 0.0096000004559755 0.0000000000000000 -0.0094999996945262
vn -0.0000000000000002 -1.5707963267948966 3.0543265129374038
v -0.0109999999403954 0.0000000000000000 0.0094999996945262
vn -0.0000000000000002 -1.5707963267948966 0.0000000000000000
v 0.0096000004559755 0.0000000000000000 0.0094999996945262
vn -3.0820921150571450 -0.5434513011555399 -2.9670567587104886
v -0.0114924041554332 0.0004131759051234 -0.0094999996945262
vn -0.1369034167779791 -1.5648190166108209 -3.0543265129372870
v -0.0109999999403954 0.0000000000000000 -0.0094999996945262
vn 2.5337663848964374 1.8408920689959543 -2.9845219667556977
v 0.0100045083090663 0.0258867852389812 -0.0094999996945262
vn 2.7905467612566222 1.4218624827165196 -2.9845069966581717
v 0.0100455032661557 0.0258198883384466 -0.0094999996945262
vn 2.9786211707825734 0.9678157593397616 -2.9845164224831935
v 0.0100755281746387 0.0257474016398191 -0.0094999996945262
vn 2.9408962783795722 -1.0704022347860691 -2.9670576245865314
v 0.0100698461756110 0.0003289899323136 -0.0094999996945262
vn 2.7103436287388813 -1.5648233130691644 -2.9670608017119604
v 0.0100330123677850 0.0002500000118744 -0.0094999996945262
vn 2.0116965885056866 -2.3974388700528220 -2.9670628006111772
v 0.0099213933572173 0.0001169777751784 -0.0094999996945262
vn 1.5648216384397822 -2.7103437795438312 -2.9670556396267016
v 0.0098500000312924 0.0000669872970320 -0.0094999996945262
vn 1.0703978969322452 -2.9408983072243355 -2.9670607132805031
v 0.0097710099071264 0.0000301536892948 -0.0094999996945262
vn 0.9678182772748033 2.9786177948210888 -2.9844966847672629
v 0.0075474018231034 0.0282755289226770 -0.0094999996945262
vn 1.4218742443004431 2.7905427141870316 -2.9845210643235136
v 0.0076198885217309 0.0282455030828714 -0.0094999996945262
vn 1.8408879156334965 2.5337689301013819 -2.9845188656600952
v 0.0076867858879268 0.0282045081257820 -0.0094999996945262
vn 3.0933492170184915 0.4899297246922124 -2.9845022908485728
v 0.0100938444957137 0.0256711095571518 -0.0094999996945262
vn 3.0820921150571374 -0.5434513011555391 -2.9670567587104881
v 0.0100924037396908 0.0004131759051234 -0.0094999996945262
vn 2.3974408874221114 -2.0116937635602818 -2.9670608251222061
v 0.0099830217659473 0.0001786061911844 -0.0094999996945262
vn 0.5434569210257915 -3.0820916178690139 -2.9670603103906501
v 0.0096868239343166 0.0000075961233961 -0.0094999996945262
vn -2.0116965885056777 -2.3974388700528104 -2.9670628006111723
v -0.0113213937729597 0.0001169777751784 -0.0094999996945262
vn -2.3974408874221274 -2.0116937635602929 -2.9670608251222057
v -0.0113830221816897 0.0001786061911844 -0.0094999996945262
vn -1.5648216384397837 -2.7103437795438294 -2.9670556396266998
v -0.0112500004470348 0.0000669872970320 -0.0094999996945262
vn -0.5434554636697261 -3.0820917453713701 -2.9670593790649753
v -0.0110868243500590 0.0000075961233961 -0.0094999996945262
vn -1.0703978969322492 -2.9408983072243426 -2.9670607132805018
v -0.0111710103228688 0.0000301536892948 -0.0094999996945262
vn -2.7103436287388867 -1.5648233130691636 -2.9670608017119604
v -0.0114330127835274 0.0002500000118744 -0.0094999996945262
vn -2.9408962783795518 -1.0704022347860598 -2.9670576245865323
v -0.0114698465913534 0.0003289899323136 -0.0094999996945262
vn 0.4899326710662953 3.0933511471265085 -2.9845214986875548
v 0.0074711106717587 0.0282938443124294 -0.0094999996945262
vn 2.9786211707825836 0.9678157593397643 2.9845164224831935
v 0.0100755281746387 0.0257474016398191 0.0094999996945262
vn 2.7905467612566381 1.4218624827165298 2.9845069966581712
v 0.0100455032661557 0.0258198883384466 0.0094999996945262
vn -3.0820921150571374 -0.5434513011555391 2.9670567587104886
v -0.0114924041554332 0.0004131759051234 0.0094999996945262
vn -2.9408962783795722 -1.0704022347860689 2.9670576245865319
v -0.0114698465913534 0.0003289899323136 0.0094999996945262
vn 3.0933492170184715 0.4899297246922095 2.9845022908485732
v 0.0100938444957137 0.0256711095571518 0.0094999996945262
vn 2.5337663848964245 1.8408920689959474 2.9845219667556977
v 0.0100045083090663 0.0258867852389812 0.0094999996945262
vn 0.9678182772747914 2.9786177948210582 2.9844966847672634
v 0.0075474018231034 0.0282755289226770 0.0094999996945262
vn 0.4899326710662990 3.0933511471265440 2.9845214986875552
v 0.0074711106717587 0.0282938443124294 0.0094999996945262
vn 2.7103436287388867 -1.5648233130691636 2.9670608017119604
v 0.0100330123677850 0.0002500000118744 0.0094999996945262
vn 2.9408962783795518 -1.0704022347860598 2.9670576245865319
v 0.0100698461756110 0.0003289899323136 0.0094999996945262
vn 0.1369048741340458 -1.5648188891084682 3.0543255816116184
v 0.0096000004559755 0.0000000000000000 0.0094999996945262
vn 1.0703978969322492 -2.9408983072243426 2.9670607132805031
v 0.0097710099071264 0.0000301536892948 0.0094999996945262
vn 1.5648216384397837 -2.7103437795438294 2.9670556396267016
v 0.0098500000312924 0.0000669872970320 0.0094999996945262
vn 2.0116965885056777 -2.3974388700528104 2.9670628006111750
v 0.0099213933572173 0.0001169777751784 0.0094999996945262
vn 3.0820921150571450 -0.5434513011555399 2.9670567587104886
v 0.0100924037396908 0.0004131759051234 0.0094999996945262
vn -2.7103436287388813 -1.5648233130691644 2.9670608017119604
v -0.0114330127835274 0.0002500000118744 0.0094999996945262
vn -2.3974408874221114 -2.0116937635602818 2.9670608251222061
v -0.0113830221816897 0.0001786061911844 0.0094999996945262
vn -2.0116965885056866 -2.3974388700528220 2.9670628006111723
v -0.0113213937729597 0.0001169777751784 0.0094999996945262
vn -1.5648216384397822 -2.7103437795438312 2.9670556396267020
v -0.0112500004470348 0.0000669872970320 0.0094999996945262
vn -1.0703978969322452 -2.9408983072243355 2.9670607132804996
v -0.0111710103228688 0.0000301536892948 0.0094999996945262
vn -0.5434554636697249 -3.0820917453713665 2.9670593790649749
v -0.0110868243500590 0.0000075961233961 0.0094999996945262
vn 0.5434569210257933 -3.0820916178690245 2.9670603103906510
v 0.0096868239343166 0.0000075961233961 0.0094999996945262
vn 1.8408879156335001 2.5337689301013890 2.9845188656600961
v 0.0076867858879268 0.0282045081257820 0.0094999996945262
vn 1.4218742443004460 2.7905427141870445 2.9845210643235127
v 0.0076198885217309 0.0282455030828714 0.0094999996945262
vn 2.3974408874221274 -2.0116937635602929 2.9670608251222061
v 0.0099830217659473 0.0001786061911844 0.0094999996945262
vn -0.1369034167779791 -1.5648190166108200 0.0000000000000000
v -0.0109999999403954 0.0000000000000000 0.0094999996945262
vn 0.1369048741340463 -1.5648188891084747 0.0000000000000000
v 0.0096000004559755 0.0000000000000000 -0.0094999996945262
# 94 vertices, 0 vertices normals

f 1//1 2//2 3//3
f 3//3 2//2 4//4
f 4//4 2//2 5//5
f 4//4 5//5 6//6
f 6//6 5//5 7//7
f 6//6 7//7 8//8
f 8//8 7//7 9//9
f 8//8 9//9 10//10
f 10//10 9//9 11//11
f 10//10 11//11 12//12
f 12//12 11//11 13//13
f 12//12 13//13 14//14
f 14//14 13//13 15//15
f 14//14 15//15 16//16
f 16//16 15//15 17//17
f 16//16 17//17 18//18
f 18//18 17//17 19//19
f 18//18 19//19 20//20
f 20//20 19//19 21//21
f 20//20 21//21 22//22
f 22//22 21//21 23//23
f 22//22 23//23 24//24
f 24//24 23//23 25//25
f 24//24 25//25 26//26
f 26//26 25//25 27//27
f 26//26 27//27 28//28
f 29//29 28//28 30//30
f 30//30 28//28 27//27
f 31//31 32//32 33//33
f 33//33 32//32 34//34
f 35//35 36//36 37//37
f 37//37 36//36 38//38
f 39//39 40//40 41//41
f 41//41 40//40 42//42
f 43//43 3//3 44//44
f 44//44 3//3 40//40
f 6//6 26//26 4//4
f 4//4 26//26 28//28
f 4//4 28//28 34//34
f 34//34 28//28 29//29
f 34//34 29//29 33//33
f 34//34 45//45 4//4
f 4//4 45//45 46//46
f 4//4 46//46 47//47
f 40//40 48//48 49//49
f 50//50 51//51 52//52
f 53//53 54//54 55//55
f 47//47 56//56 4//4
f 4//4 56//56 37//37
f 4//4 37//37 3//3
f 3//3 37//37 38//38
f 3//3 38//38 40//40
f 40//40 38//38 57//57
f 40//40 57//57 48//48
f 49//49 58//58 40//40
f 40//40 58//58 50//50
f 40//40 50//50 59//59
f 59//59 50//50 52//52
f 44//44 60//60 61//61
f 12//12 14//14 10//10
f 10//10 14//14 16//16
f 16//16 18//18 10//10
f 10//10 18//18 20//20
f 10//10 20//20 22//22
f 60//60 44//44 62//62
f 62//62 44//44 63//63
f 62//62 63//63 64//64
f 61//61 65//65 44//44
f 44//44 65//65 66//66
f 44//44 66//66 43//43
f 6//6 8//8 26//26
f 26//26 8//8 10//10
f 26//26 10//10 24//24
f 24//24 10//10 22//22
f 33//33 29//29 55//55
f 55//55 29//29 67//67
f 55//55 67//67 53//53
f 68//68 69//69 41//41
f 70//70 71//71 41//41
f 68//68 41//41 72//72
f 69//69 73//73 41//41
f 41//41 73//73 32//32
f 41//41 32//32 31//31
f 74//74 75//75 41//41
f 41//41 75//75 30//30
f 41//41 30//30 27//27
f 7//7 5//5 25//25
f 25//25 5//5 2//2
f 25//25 2//2 27//27
f 27//27 2//2 41//41
f 41//41 2//2 1//1
f 41//41 1//1 70//70
f 76//76 77//77 78//78
f 17//17 15//15 13//13
f 79//79 80//80 81//81
f 77//77 82//82 78//78
f 78//78 82//82 36//36
f 78//78 36//36 41//41
f 41//41 36//36 35//35
f 41//41 35//35 72//72
f 21//21 19//19 9//9
f 9//9 19//19 17//17
f 9//9 17//17 11//11
f 11//11 17//17 13//13
f 71//71 83//83 41//41
f 41//41 83//83 84//84
f 41//41 84//84 85//85
f 85//85 86//86 41//41
f 41//41 86//86 87//87
f 41//41 87//87 88//88
f 79//79 81//81 89//89
f 31//31 90//90 41//41
f 41//41 90//90 91//91
f 41//41 91//91 74//74
f 7//7 25//25 9//9
f 9//9 25//25 23//23
f 9//9 23//23 21//21
f 89//89 81//81 78//78
f 78//78 81//81 92//92
f 78//78 92//92 76//76
f 29//29 30//30 75//75
f 29//29 75//75 67//67
f 67//67 75//75 74//74
f 67//67 74//74 53//53
f 53//53 74//74 91//91
f 53//53 91//91 54//54
f 54//54 91//91 90//90
f 54//54 90//90 55//55
f 55//55 90//90 31//31
f 55//55 31//31 33//33
f 34//34 32//32 73//73
f 34//34 73//73 45//45
f 45//45 73//73 69//69
f 45//45 69//69 46//46
f 46//46 69//69 68//68
f 46//46 68//68 47//47
f 47//47 68//68 72//72
f 47//47 72//72 56//56
f 56//56 72//72 35//35
f 56//56 35//35 37//37
f 44//44 93//93 88//88
f 44//44 88//88 63//63
f 63//63 88//88 87//87
f 63//63 87//87 64//64
f 64//64 87//87 86//86
f 64//64 86//86 62//62
f 62//62 86//86 85//85
f 62//62 85//85 60//60
f 60//60 85//85 84//84
f 60//60 84//84 61//61
f 61//61 84//84 83//83
f 61//61 83//83 65//65
f 65//65 83//83 71//71
f 65//65 71//71 66//66
f 66//66 71//71 70//70
f 66//66 70//70 43//43
f 43//43 70//70 1//1
f 43//43 1//1 3//3
f 38//38 36//36 82//82
f 38//38 82//82 57//57
f 57//57 82//82 77//77
f 57//57 77//77 48//48
f 48//48 77//77 76//76
f 48//48 76//76 49//49
f 49//49 76//76 92//92
f 49//49 92//92 58//58
f 58//58 92//92 81//81
f 58//58 81//81 50//50
f 50//50 81//81 80//80
f 50//50 80//80 51//51
f 51//51 80//80 79//79
f 51//51 79//79 52//52
f 52//52 79//79 89//89
f 52//52 89//89 59//59
f 59//59 89//89 78//78
f 59//59 78//78 94//94
# 176 faces, 0 coords texture

# End of File
